<?xml version="1.0" encoding="UTF-8"?>
<svg id="_Слой_1" data-name="Слой 1" xmlns="http://www.w3.org/2000/svg" viewBox="0 0 58 55.91">
  <defs>
    <style>
      .cls-1 {
        fill: #45a945;
      }
    </style>
  </defs>
  <polygon class="cls-1" points="58 26 58 31.7 29 6.55 0 31.5 0 26 29 0 58 26"/>
  <path class="cls-1" d="M11.32,26l-5.66,5.5v24.42h11.02c1.45-.1,4.39-.5,7.37-2.43,1.12-.72,2.97-1.89,4.24-4.12,1.04-1.82,1.18-3.53,1.41-6.87,.13-1.8,.16-3.85,0-6.11,.53,1.16,1.11,2.76,1.41,4.74,.35,2.24,.21,4.15,0,5.5,1.19-.46,3.65-1.61,5.66-4.12,2.72-3.4,2.84-7.07,2.83-8.25-.25-2.38-.92-5.86-2.83-9.62-3.04-5.99-7.53-9.43-9.9-11,.36,.46,1.41,1.96,1.41,4.12,0,.58-.08,2.39-1.41,4.12-1.16,1.78-2.15,3.18-2.83,4.12-1.19,1.65-1.89,2.52-2.83,4.12-.75,1.29-1.14,1.93-1.41,2.75-.26,.78-1.22,3.71,0,6.87,.29,.74,1.02,2.63,2.83,4.12,.78,.64,1.24,.78,1.41,1.37,.42,1.48-1.62,3.32-2.83,4.12-1.51,1-3.09,1.3-4.24,1.37h-5.66V26Z"/>
  <path class="cls-1" d="M46.68,27.37l5.66,4.12v24.42H25.67c.37-.02,1.56-.13,2.62-1.05,1.22-1.06,1.39-2.43,1.41-2.75h16.98V27.37"/>
</svg>